TITLE ""
FILE "2Q_t_0701-0717.mp3" MP3
  TRACK 01 AUDIO
    TITLE "2Q_t_0701-0717_01"
    INDEX 01 00:00:00
  TRACK 02 AUDIO
    TITLE "2Q_t_0701-0717_02"
    INDEX 01 00:00:16
  TRACK 03 AUDIO
    TITLE "2Q_t_0701-0717_03"
    INDEX 01 00:01:43
  TRACK 04 AUDIO
    TITLE "2Q_t_0701-0717_04"
    INDEX 01 00:02:15
  TRACK 05 AUDIO
    TITLE "2Q_t_0701-0717_05"
    INDEX 01 00:03:24
  TRACK 06 AUDIO
    TITLE "2Q_t_0701-0717_06"
    INDEX 01 00:03:69
  TRACK 07 AUDIO
    TITLE "2Q_t_0701-0717_07"
    INDEX 01 00:05:00
  TRACK 08 AUDIO
    TITLE "2Q_t_0701-0717_08"
    INDEX 01 00:05:49
  TRACK 09 AUDIO
    TITLE "2Q_t_0701-0717_09"
    INDEX 01 00:08:41
  TRACK 10 AUDIO
    TITLE "2Q_t_0701-0717_10"
    INDEX 01 00:09:11
  TRACK 11 AUDIO
    TITLE "2Q_t_0701-0717_11"
    INDEX 01 00:10:30
  TRACK 12 AUDIO
    TITLE "2Q_t_0701-0717_12"
    INDEX 01 00:11:02
  TRACK 13 AUDIO
    TITLE "2Q_t_0701-0717_13"
    INDEX 01 00:13:54
  TRACK 14 AUDIO
    TITLE "2Q_t_0701-0717_14"
    INDEX 01 00:14:22
  TRACK 15 AUDIO
    TITLE "2Q_t_0701-0717_15"
    INDEX 01 00:15:33
  TRACK 16 AUDIO
    TITLE "2Q_t_0701-0717_16"
    INDEX 01 00:16:13
  TRACK 17 AUDIO
    TITLE "2Q_t_0701-0717_17"
    INDEX 01 00:17:30
  TRACK 18 AUDIO
    TITLE "2Q_t_0701-0717_18"
    INDEX 01 00:18:00
  TRACK 19 AUDIO
    TITLE "2Q_t_0701-0717_19"
    INDEX 01 00:19:25
  TRACK 20 AUDIO
    TITLE "2Q_t_0701-0717_20"
    INDEX 01 00:19:72
  TRACK 21 AUDIO
    TITLE "2Q_t_0701-0717_21"
    INDEX 01 00:22:39
  TRACK 22 AUDIO
    TITLE "2Q_t_0701-0717_22"
    INDEX 01 00:23:07
  TRACK 23 AUDIO
    TITLE "2Q_t_0701-0717_23"
    INDEX 01 00:24:21
  TRACK 24 AUDIO
    TITLE "2Q_t_0701-0717_24"
    INDEX 01 00:24:70
  TRACK 25 AUDIO
    TITLE "2Q_t_0701-0717_25"
    INDEX 01 00:27:60
  TRACK 26 AUDIO
    TITLE "2Q_t_0701-0717_26"
    INDEX 01 00:28:30
  TRACK 27 AUDIO
    TITLE "2Q_t_0701-0717_27"
    INDEX 01 00:29:45
  TRACK 28 AUDIO
    TITLE "2Q_t_0701-0717_28"
    INDEX 01 00:30:17
  TRACK 29 AUDIO
    TITLE "2Q_t_0701-0717_29"
    INDEX 01 00:33:10
  TRACK 30 AUDIO
    TITLE "2Q_t_0701-0717_30"
    INDEX 01 00:33:53
  TRACK 31 AUDIO
    TITLE "2Q_t_0701-0717_31"
    INDEX 01 00:34:56
  TRACK 32 AUDIO
    TITLE "2Q_t_0701-0717_32"
    INDEX 01 00:35:38
  TRACK 33 AUDIO
    TITLE "2Q_t_0701-0717_33"
    INDEX 01 00:39:08
  TRACK 34 AUDIO
    TITLE "2Q_t_0701-0717_34"
    INDEX 01 00:39:53
  TRACK 35 AUDIO
    TITLE "2Q_t_0701-0717_35"
    INDEX 01 00:41:03
  TRACK 36 AUDIO
    TITLE "2Q_t_0701-0717_36"
    INDEX 01 00:41:50
  TRACK 37 AUDIO
    TITLE "2Q_t_0701-0717_37"
    INDEX 01 00:43:06
  TRACK 38 AUDIO
    TITLE "2Q_t_0701-0717_38"
    INDEX 01 00:43:49
  TRACK 39 AUDIO
    TITLE "2Q_t_0701-0717_39"
    INDEX 01 00:44:51
  TRACK 40 AUDIO
    TITLE "2Q_t_0701-0717_40"
    INDEX 01 00:45:29
  TRACK 41 AUDIO
    TITLE "2Q_t_0701-0717_41"
    INDEX 01 00:49:34
  TRACK 42 AUDIO
    TITLE "2Q_t_0701-0717_42"
    INDEX 01 00:50:02
  TRACK 43 AUDIO
    TITLE "2Q_t_0701-0717_43"
    INDEX 01 00:51:16
  TRACK 44 AUDIO
    TITLE "2Q_t_0701-0717_44"
    INDEX 01 00:51:59
  TRACK 45 AUDIO
    TITLE "2Q_t_0701-0717_45"
    INDEX 01 00:55:07
  TRACK 46 AUDIO
    TITLE "2Q_t_0701-0717_46"
    INDEX 01 00:55:52
  TRACK 47 AUDIO
    TITLE "2Q_t_0701-0717_47"
    INDEX 01 00:56:70
  TRACK 48 AUDIO
    TITLE "2Q_t_0701-0717_48"
    INDEX 01 00:57:49
  TRACK 49 AUDIO
    TITLE "2Q_t_0701-0717_49"
    INDEX 01 00:58:72
  TRACK 50 AUDIO
    TITLE "2Q_t_0701-0717_50"
    INDEX 01 00:59:40
  TRACK 51 AUDIO
    TITLE "2Q_t_0701-0717_51"
    INDEX 01 01:01:02
  TRACK 52 AUDIO
    TITLE "2Q_t_0701-0717_52"
    INDEX 01 01:01:49
  TRACK 53 AUDIO
    TITLE "2Q_t_0701-0717_53"
    INDEX 01 01:03:07
  TRACK 54 AUDIO
    TITLE "2Q_t_0701-0717_54"
    INDEX 01 01:03:50
  TRACK 55 AUDIO
    TITLE "2Q_t_0701-0717_55"
    INDEX 01 01:04:57
  TRACK 56 AUDIO
    TITLE "2Q_t_0701-0717_56"
    INDEX 01 01:05:29
  TRACK 57 AUDIO
    TITLE "2Q_t_0701-0717_57"
    INDEX 01 01:06:52
  TRACK 58 AUDIO
    TITLE "2Q_t_0701-0717_58"
    INDEX 01 01:07:22
  TRACK 59 AUDIO
    TITLE "2Q_t_0701-0717_59"
    INDEX 01 01:08:24
  TRACK 60 AUDIO
    TITLE "2Q_t_0701-0717_60"
    INDEX 01 01:08:73
  TRACK 61 AUDIO
    TITLE "2Q_t_0701-0717_61"
    INDEX 01 01:11:38
  TRACK 62 AUDIO
    TITLE "2Q_t_0701-0717_62"
    INDEX 01 01:12:06
  TRACK 63 AUDIO
    TITLE "2Q_t_0701-0717_63"
    INDEX 01 01:13:29
  TRACK 64 AUDIO
    TITLE "2Q_t_0701-0717_64"
    INDEX 01 01:14:03
  TRACK 65 AUDIO
    TITLE "2Q_t_0701-0717_65"
    INDEX 01 01:17:23
  TRACK 66 AUDIO
    TITLE "2Q_t_0701-0717_66"
    INDEX 01 01:17:66
  TRACK 67 AUDIO
    TITLE "2Q_t_0701-0717_67"
    INDEX 01 01:19:02
  TRACK 68 AUDIO
    TITLE "2Q_t_0701-0717_68"
    INDEX 01 01:19:55
  TRACK 69 AUDIO
    TITLE "2Q_t_0701-0717_69"
    INDEX 01 01:21:09
  TRACK 70 AUDIO
    TITLE "2Q_t_0701-0717_70"
    INDEX 01 01:21:52
  TRACK 71 AUDIO
    TITLE "2Q_t_0701-0717_71"
    INDEX 01 01:23:00
  TRACK 72 AUDIO
    TITLE "2Q_t_0701-0717_72"
    INDEX 01 01:23:45
  TRACK 73 AUDIO
    TITLE "2Q_t_0701-0717_73"
    INDEX 01 01:25:14
